<svg t="1609688399299" class="icon" viewBox="0 0 1024 1024" version="1.1" xmlns="http://www.w3.org/2000/svg" p-id="875" width="200" height="200"><path d="M553.984 617.984l171.989333-160-171.989333-160 0 91.989333q-210.005333 29.994667-256 249.984 86.016-116.010667 256-116.010667l0 93.994667zM854.016 768l169.984 0 0 86.016-1024 0 0-86.016 169.984 0q-36.010667 0-59.989333-25.002667t-24.021333-61.013333l0-425.984q0-36.010667 24.021333-61.013333t59.989333-25.002667l683.989333 0q34.005333 0 59.008 25.002667t25.002667 61.013333l0 425.984q0 34.005333-25.002667 59.989333t-59.008 25.984z" p-id="876"></path></svg>