<svg t="1609690243193" class="icon" viewBox="0 0 1170 1024" version="1.1" xmlns="http://www.w3.org/2000/svg" p-id="4245" width="200" height="200"><path d="M1019.12381 11.946667c17.65181 17.65181 15.311238 49.200762-4.534858 72.996571l-4.87619 5.36381-85.577143 85.528381c1.024 5.802667 1.755429 11.702857 2.096762 17.651809l0.243809 8.582095v52.565334l51.980191-36.327619a121.904762 121.904762 0 0 1 164.815238 23.30819l4.973714 6.631619a121.904762 121.904762 0 0 1 21.699048 60.562286l0.341333 9.362286v304.176761a121.904762 121.904762 0 0 1-183.929904 104.93562l-7.899429-5.071239L926.47619 685.83619v52.662858a146.285714 146.285714 0 0 1-137.703619 145.993142l-8.582095 0.24381H215.186286l-83.139048 83.236571c-24.234667 24.234667-59.343238 28.42819-78.360381 9.411048-17.700571-17.700571-15.36-49.249524 4.486095-73.045333l4.876191-5.36381 25.892571-25.892571A146.383238 146.383238 0 0 1 0.24381 747.032381L0 738.450286v-536.380953A146.285714 146.285714 0 0 1 137.703619 56.07619L146.285714 55.783619h633.904762c35.254857 0 67.584 12.483048 92.842667 33.255619L940.714667 21.308952C964.998095-2.925714 1000.106667-7.119238 1019.12381 11.946667z m-238.933334 141.409523H146.285714a48.761905 48.761905 0 0 0-48.420571 43.008L97.52381 202.069333v536.380953a48.761905 48.761905 0 0 0 43.056761 48.420571l5.705143 0.341333h28.525715L803.05981 159.012571A48.566857 48.566857 0 0 0 780.190476 153.307429z m48.761905 117.613715L312.710095 787.21219H780.190476a48.761905 48.761905 0 0 0 48.420572-43.056761l0.341333-5.705143V270.969905z m209.286095 25.063619l-3.85219 2.145524L926.47619 373.76v192.999619l107.910096 75.580952a24.380952 24.380952 0 0 0 6.680381 3.267048l3.608381 0.828952 3.705904 0.292572a24.380952 24.380952 0 0 0 23.990858-19.992381l0.390095-4.388572V318.171429a24.380952 24.380952 0 0 0-34.523429-22.137905zM280.380952 323.974095a60.952381 60.952381 0 1 1 0 121.904762 60.952381 60.952381 0 0 1 0-121.904762z" p-id="4246"></path></svg>